<svg width="1280" height="720" xmlns="http://www.w3.org/2000/svg" xmlns:xlink="http://www.w3.org/1999/xlink" overflow="hidden"><g><rect x="0" y="0" width="1280" height="720" fill="#FFFFFF"/><path d="M751.45 0 751.469 0 1041.13 63.6417C1041.13 63.6417 1041.22 317.839 462.728 495.113 462.728 495.113 951.498 339.713 1172.58 533.194L1213 576.683 1213 576.693 1203.37 577.198C1166.14 579.714 1029.05 594.24 934.19 674.281L890.949 720 890.936 720 889.353 717.035C873.986 690.075 739.587 491.117 164.978 588.287L35 613.81 35 613.809 43.4861 611.122C120.977 586.11 703.707 387.925 750.098 69.9485L751.45 0Z" fill="#E4322B" fill-rule="evenodd"/></g></svg>